<?xml version="1.0" standalone="no"?>
<!DOCTYPE svg PUBLIC "-//W3C//DTD SVG 20010904//EN"
 "http://www.w3.org/TR/2001/REC-SVG-20010904/DTD/svg10.dtd">
<svg version="1.0" xmlns="http://www.w3.org/2000/svg"
 width="200.000000pt" height="200.000000pt" viewBox="0 0 200.000000 200.000000"
 preserveAspectRatio="xMidYMid meet">

<g transform="translate(0.000000,200.000000) scale(0.100000,-0.100000)"
fill="#000000" stroke="none">
<path d="M1009 1903 c-32 -27 -37 -56 -14 -79 17 -18 15 -26 -60 -175 -71
-143 -124 -220 -198 -291 -33 -32 -55 -58 -50 -58 5 0 46 5 92 10 78 10 87 14
134 55 45 39 55 44 101 44 44 0 162 17 261 38 17 4 86 6 155 5 69 -1 138 1
153 4 25 5 28 9 25 42 -4 47 -37 64 -126 68 -35 1 -67 5 -70 8 -3 3 -17 -1
-30 -10 -14 -9 -95 -33 -181 -54 -86 -21 -166 -42 -178 -45 -13 -4 -23 -5 -23
-2 0 13 67 104 108 146 100 104 102 122 31 231 -59 90 -83 102 -130 63z"/>
<path d="M380 1796 c0 -90 138 -286 202 -286 28 0 58 23 58 44 0 29 -43 136
-55 136 -7 0 -15 7 -19 15 -3 8 -14 15 -24 15 -11 0 -47 25 -81 55 -34 30 -66
55 -71 55 -6 0 -10 -15 -10 -34z"/>
<path d="M1370 1295 c-14 -15 -48 -32 -80 -41 -30 -8 -97 -28 -147 -45 -86
-27 -95 -28 -116 -14 -13 8 -29 26 -35 40 -20 43 -76 26 -87 -26 -5 -24 -2
-36 14 -53 24 -25 25 -14 -19 -186 -12 -47 -25 -89 -30 -94 -5 -5 -42 -15 -82
-23 -40 -8 -93 -18 -118 -23 -25 -4 -56 -13 -70 -18 -14 -5 -30 -7 -37 -5 -24
9 -22 -17 4 -42 50 -46 175 -69 219 -41 14 10 27 16 29 14 3 -2 -17 -41 -43
-86 -30 -52 -60 -91 -83 -106 -57 -39 -59 -86 -4 -72 14 4 44 2 67 -3 24 -6
108 -17 188 -26 176 -20 261 -37 259 -50 0 -5 -6 -8 -12 -6 -7 2 -21 6 -32 9
-19 4 -19 3 2 -17 18 -17 21 -26 13 -47 -6 -14 -10 -35 -10 -48 0 -23 37 -66
58 -66 12 0 94 81 128 126 l21 28 44 -16 c24 -9 66 -19 92 -23 40 -5 51 -3 62
12 21 27 7 64 -39 105 -34 31 -48 38 -85 38 l-43 0 7 37 c3 21 20 92 37 158
17 66 33 130 35 143 7 31 36 36 161 27 182 -12 198 -12 221 9 20 19 20 19 1
46 -11 15 -40 35 -66 45 -47 18 -72 18 -222 -1 l-53 -7 7 29 c3 16 12 42 20
58 35 74 25 131 -35 195 -17 19 -41 47 -52 62 -25 36 -58 37 -89 4z m9 -112
c24 -6 24 -6 18 -116 -4 -60 -12 -116 -18 -123 -8 -10 -34 -14 -81 -14 -63 0
-69 2 -63 18 3 9 11 40 17 68 11 53 5 71 -38 131 -15 21 -15 22 18 32 39 11
113 13 147 4z m-253 -57 c1 -10 7 -23 13 -29 15 -15 14 -47 -5 -122 -15 -61
-17 -63 -52 -70 -21 -3 -48 -9 -61 -12 -27 -7 -29 -18 18 122 17 49 31 97 31
107 0 30 52 34 56 4z m213 -412 c-16 -75 -34 -154 -39 -175 l-11 -40 -52 6
c-29 3 -79 10 -112 16 -33 5 -77 9 -97 9 -43 0 -49 14 -14 32 31 16 75 77 127
175 22 43 44 81 48 85 4 4 31 10 61 14 30 3 57 8 59 10 2 2 17 4 32 4 l27 0
-29 -136z m-289 22 c-17 -41 -50 -103 -71 -137 l-40 -62 -60 6 c-34 3 -63 8
-67 11 -3 4 6 19 20 34 14 15 40 52 57 82 50 90 74 113 133 131 29 9 54 15 56
13 2 -1 -11 -36 -28 -78z"/>
<path d="M260 1187 c-19 -5 -59 -10 -89 -12 -102 -6 -123 -22 -81 -60 25 -23
87 -35 216 -42 113 -6 144 3 144 41 0 44 -31 69 -86 70 -27 1 -53 4 -59 7 -5
3 -26 2 -45 -4z"/>
<path d="M557 653 c-59 -62 -175 -197 -201 -235 -16 -23 -17 -23 -47 -5 -44
25 -52 22 -45 -17 4 -20 2 -37 -4 -41 -15 -9 -12 -57 5 -82 8 -12 30 -25 48
-29 17 -3 45 -17 60 -30 32 -27 97 -33 115 -11 5 6 12 46 14 89 3 69 7 80 36
118 24 29 36 57 43 98 4 31 17 87 27 125 11 37 16 70 12 72 -5 3 -33 -21 -63
-52z"/>
</g>
</svg>
